<mxfile host="app.diagrams.net" modified="2023-11-02T14:56:33.943Z" agent="Mozilla/5.0 (Windows NT 10.0; Win64; x64) AppleWebKit/537.36 (KHTML, like Gecko) Chrome/118.0.0.0 Safari/537.36 Edg/118.0.2088.76" etag="Sp8b5uqbzSgz3CS3381k" version="22.0.8" type="github">
  <diagram name="Page-1" id="42789a77-a242-8287-6e28-9cd8cfd52e62">
    <mxGraphModel dx="1487" dy="864" grid="1" gridSize="10" guides="1" tooltips="1" connect="1" arrows="1" fold="1" page="1" pageScale="1" pageWidth="1100" pageHeight="850" background="none" math="0" shadow="0">
      <root>
        <mxCell id="0" />
        <mxCell id="1" parent="0" />
        <mxCell id="sQAgJcYKwyNOtMR-U2Rv-1" value="&lt;font style=&quot;font-size: 19px;&quot;&gt;Student&lt;/font&gt;" style="rounded=0;whiteSpace=wrap;html=1;strokeWidth=2;fillColor=#f8cecc;strokeColor=#b85450;" vertex="1" parent="1">
          <mxGeometry x="340" y="310" width="120" height="60" as="geometry" />
        </mxCell>
        <mxCell id="sQAgJcYKwyNOtMR-U2Rv-2" value="Birth date" style="ellipse;whiteSpace=wrap;html=1;" vertex="1" parent="1">
          <mxGeometry x="380" y="530" width="110" height="50" as="geometry" />
        </mxCell>
        <mxCell id="sQAgJcYKwyNOtMR-U2Rv-3" value="CurAddress" style="ellipse;whiteSpace=wrap;html=1;" vertex="1" parent="1">
          <mxGeometry x="290" y="190" width="110" height="50" as="geometry" />
        </mxCell>
        <mxCell id="sQAgJcYKwyNOtMR-U2Rv-4" value="Sex" style="ellipse;whiteSpace=wrap;html=1;" vertex="1" parent="1">
          <mxGeometry x="280" y="500" width="110" height="50" as="geometry" />
        </mxCell>
        <mxCell id="sQAgJcYKwyNOtMR-U2Rv-5" value="Student Name" style="ellipse;whiteSpace=wrap;html=1;" vertex="1" parent="1">
          <mxGeometry x="190" y="230" width="110" height="50" as="geometry" />
        </mxCell>
        <mxCell id="sQAgJcYKwyNOtMR-U2Rv-6" value="CurPhone" style="ellipse;whiteSpace=wrap;html=1;" vertex="1" parent="1">
          <mxGeometry x="120" y="290" width="110" height="50" as="geometry" />
        </mxCell>
        <mxCell id="sQAgJcYKwyNOtMR-U2Rv-7" value="SocialSecNum" style="ellipse;whiteSpace=wrap;html=1;" vertex="1" parent="1">
          <mxGeometry x="120" y="350" width="110" height="50" as="geometry" />
        </mxCell>
        <mxCell id="sQAgJcYKwyNOtMR-U2Rv-8" value="Class" style="ellipse;whiteSpace=wrap;html=1;" vertex="1" parent="1">
          <mxGeometry x="200" y="460" width="110" height="50" as="geometry" />
        </mxCell>
        <mxCell id="sQAgJcYKwyNOtMR-U2Rv-9" value="Student Num" style="ellipse;whiteSpace=wrap;html=1;" vertex="1" parent="1">
          <mxGeometry x="140" y="410" width="110" height="50" as="geometry" />
        </mxCell>
        <mxCell id="sQAgJcYKwyNOtMR-U2Rv-10" value="PerAddress" style="ellipse;whiteSpace=wrap;html=1;" vertex="1" parent="1">
          <mxGeometry x="410" y="180" width="110" height="50" as="geometry" />
        </mxCell>
        <mxCell id="sQAgJcYKwyNOtMR-U2Rv-11" value="PerPhone" style="ellipse;whiteSpace=wrap;html=1;" vertex="1" parent="1">
          <mxGeometry x="495" y="220" width="110" height="50" as="geometry" />
        </mxCell>
        <mxCell id="sQAgJcYKwyNOtMR-U2Rv-12" value="Degree Prog" style="ellipse;whiteSpace=wrap;html=1;" vertex="1" parent="1">
          <mxGeometry x="540" y="270" width="110" height="50" as="geometry" />
        </mxCell>
        <mxCell id="sQAgJcYKwyNOtMR-U2Rv-13" value="MName" style="ellipse;whiteSpace=wrap;html=1;" vertex="1" parent="1">
          <mxGeometry x="150" y="130" width="60" height="50" as="geometry" />
        </mxCell>
        <mxCell id="sQAgJcYKwyNOtMR-U2Rv-14" value="FName" style="ellipse;whiteSpace=wrap;html=1;" vertex="1" parent="1">
          <mxGeometry x="100" y="170" width="60" height="50" as="geometry" />
        </mxCell>
        <mxCell id="sQAgJcYKwyNOtMR-U2Rv-15" value="LName" style="ellipse;whiteSpace=wrap;html=1;" vertex="1" parent="1">
          <mxGeometry x="210" y="110" width="60" height="50" as="geometry" />
        </mxCell>
        <mxCell id="sQAgJcYKwyNOtMR-U2Rv-16" value="" style="endArrow=none;html=1;rounded=0;entryX=0.5;entryY=1;entryDx=0;entryDy=0;" edge="1" parent="1" source="sQAgJcYKwyNOtMR-U2Rv-5" target="sQAgJcYKwyNOtMR-U2Rv-15">
          <mxGeometry width="50" height="50" relative="1" as="geometry">
            <mxPoint x="510" y="390" as="sourcePoint" />
            <mxPoint x="560" y="340" as="targetPoint" />
          </mxGeometry>
        </mxCell>
        <mxCell id="sQAgJcYKwyNOtMR-U2Rv-17" value="" style="endArrow=none;html=1;rounded=0;" edge="1" parent="1" source="sQAgJcYKwyNOtMR-U2Rv-5" target="sQAgJcYKwyNOtMR-U2Rv-13">
          <mxGeometry width="50" height="50" relative="1" as="geometry">
            <mxPoint x="270" y="230" as="sourcePoint" />
            <mxPoint x="266" y="160" as="targetPoint" />
          </mxGeometry>
        </mxCell>
        <mxCell id="sQAgJcYKwyNOtMR-U2Rv-18" value="" style="endArrow=none;html=1;rounded=0;entryX=1;entryY=1;entryDx=0;entryDy=0;" edge="1" parent="1" source="sQAgJcYKwyNOtMR-U2Rv-5" target="sQAgJcYKwyNOtMR-U2Rv-14">
          <mxGeometry width="50" height="50" relative="1" as="geometry">
            <mxPoint x="230" y="241" as="sourcePoint" />
            <mxPoint x="204" y="187" as="targetPoint" />
          </mxGeometry>
        </mxCell>
        <mxCell id="sQAgJcYKwyNOtMR-U2Rv-19" value="" style="endArrow=none;html=1;rounded=0;entryX=0.049;entryY=0.688;entryDx=0;entryDy=0;entryPerimeter=0;" edge="1" parent="1" source="sQAgJcYKwyNOtMR-U2Rv-1" target="sQAgJcYKwyNOtMR-U2Rv-12">
          <mxGeometry width="50" height="50" relative="1" as="geometry">
            <mxPoint x="510" y="390" as="sourcePoint" />
            <mxPoint x="560" y="340" as="targetPoint" />
          </mxGeometry>
        </mxCell>
        <mxCell id="sQAgJcYKwyNOtMR-U2Rv-20" value="" style="endArrow=none;html=1;rounded=0;entryX=0;entryY=0.5;entryDx=0;entryDy=0;" edge="1" parent="1" source="sQAgJcYKwyNOtMR-U2Rv-1" target="sQAgJcYKwyNOtMR-U2Rv-11">
          <mxGeometry width="50" height="50" relative="1" as="geometry">
            <mxPoint x="510" y="390" as="sourcePoint" />
            <mxPoint x="560" y="340" as="targetPoint" />
          </mxGeometry>
        </mxCell>
        <mxCell id="sQAgJcYKwyNOtMR-U2Rv-21" value="" style="endArrow=none;html=1;rounded=0;entryX=0.5;entryY=1;entryDx=0;entryDy=0;" edge="1" parent="1" source="sQAgJcYKwyNOtMR-U2Rv-1" target="sQAgJcYKwyNOtMR-U2Rv-3">
          <mxGeometry width="50" height="50" relative="1" as="geometry">
            <mxPoint x="510" y="390" as="sourcePoint" />
            <mxPoint x="560" y="340" as="targetPoint" />
          </mxGeometry>
        </mxCell>
        <mxCell id="sQAgJcYKwyNOtMR-U2Rv-22" value="" style="endArrow=none;html=1;rounded=0;" edge="1" parent="1" source="sQAgJcYKwyNOtMR-U2Rv-1" target="sQAgJcYKwyNOtMR-U2Rv-10">
          <mxGeometry width="50" height="50" relative="1" as="geometry">
            <mxPoint x="510" y="390" as="sourcePoint" />
            <mxPoint x="560" y="340" as="targetPoint" />
          </mxGeometry>
        </mxCell>
        <mxCell id="sQAgJcYKwyNOtMR-U2Rv-23" value="" style="endArrow=none;html=1;rounded=0;entryX=0.688;entryY=0.961;entryDx=0;entryDy=0;entryPerimeter=0;exitX=0;exitY=0;exitDx=0;exitDy=0;" edge="1" parent="1" source="sQAgJcYKwyNOtMR-U2Rv-1" target="sQAgJcYKwyNOtMR-U2Rv-5">
          <mxGeometry width="50" height="50" relative="1" as="geometry">
            <mxPoint x="480" y="400" as="sourcePoint" />
            <mxPoint x="530" y="350" as="targetPoint" />
          </mxGeometry>
        </mxCell>
        <mxCell id="sQAgJcYKwyNOtMR-U2Rv-24" value="" style="endArrow=none;html=1;rounded=0;entryX=1.007;entryY=0.602;entryDx=0;entryDy=0;entryPerimeter=0;exitX=0;exitY=0.5;exitDx=0;exitDy=0;" edge="1" parent="1" source="sQAgJcYKwyNOtMR-U2Rv-1" target="sQAgJcYKwyNOtMR-U2Rv-6">
          <mxGeometry width="50" height="50" relative="1" as="geometry">
            <mxPoint x="220" y="400" as="sourcePoint" />
            <mxPoint x="270" y="350" as="targetPoint" />
          </mxGeometry>
        </mxCell>
        <mxCell id="sQAgJcYKwyNOtMR-U2Rv-25" value="" style="endArrow=none;html=1;rounded=0;entryX=-0.003;entryY=0.595;entryDx=0;entryDy=0;entryPerimeter=0;" edge="1" parent="1" source="sQAgJcYKwyNOtMR-U2Rv-7" target="sQAgJcYKwyNOtMR-U2Rv-1">
          <mxGeometry width="50" height="50" relative="1" as="geometry">
            <mxPoint x="220" y="400" as="sourcePoint" />
            <mxPoint x="270" y="350" as="targetPoint" />
          </mxGeometry>
        </mxCell>
        <mxCell id="sQAgJcYKwyNOtMR-U2Rv-26" value="" style="endArrow=none;html=1;rounded=0;" edge="1" parent="1" source="sQAgJcYKwyNOtMR-U2Rv-9" target="sQAgJcYKwyNOtMR-U2Rv-1">
          <mxGeometry width="50" height="50" relative="1" as="geometry">
            <mxPoint x="220" y="400" as="sourcePoint" />
            <mxPoint x="270" y="350" as="targetPoint" />
          </mxGeometry>
        </mxCell>
        <mxCell id="sQAgJcYKwyNOtMR-U2Rv-27" value="" style="endArrow=none;html=1;rounded=0;entryX=0.25;entryY=1;entryDx=0;entryDy=0;" edge="1" parent="1" source="sQAgJcYKwyNOtMR-U2Rv-8" target="sQAgJcYKwyNOtMR-U2Rv-1">
          <mxGeometry width="50" height="50" relative="1" as="geometry">
            <mxPoint x="220" y="400" as="sourcePoint" />
            <mxPoint x="270" y="350" as="targetPoint" />
          </mxGeometry>
        </mxCell>
        <mxCell id="sQAgJcYKwyNOtMR-U2Rv-28" value="" style="endArrow=none;html=1;rounded=0;entryX=0.5;entryY=1;entryDx=0;entryDy=0;exitX=0.683;exitY=-0.042;exitDx=0;exitDy=0;exitPerimeter=0;" edge="1" parent="1" source="sQAgJcYKwyNOtMR-U2Rv-4" target="sQAgJcYKwyNOtMR-U2Rv-1">
          <mxGeometry width="50" height="50" relative="1" as="geometry">
            <mxPoint x="220" y="400" as="sourcePoint" />
            <mxPoint x="270" y="350" as="targetPoint" />
          </mxGeometry>
        </mxCell>
        <mxCell id="sQAgJcYKwyNOtMR-U2Rv-29" value="" style="endArrow=none;html=1;rounded=0;entryX=0.75;entryY=1;entryDx=0;entryDy=0;" edge="1" parent="1" source="sQAgJcYKwyNOtMR-U2Rv-2" target="sQAgJcYKwyNOtMR-U2Rv-1">
          <mxGeometry width="50" height="50" relative="1" as="geometry">
            <mxPoint x="220" y="400" as="sourcePoint" />
            <mxPoint x="270" y="350" as="targetPoint" />
          </mxGeometry>
        </mxCell>
        <mxCell id="sQAgJcYKwyNOtMR-U2Rv-30" value="City" style="ellipse;whiteSpace=wrap;html=1;" vertex="1" parent="1">
          <mxGeometry x="380" y="90" width="60" height="50" as="geometry" />
        </mxCell>
        <mxCell id="sQAgJcYKwyNOtMR-U2Rv-31" value="State" style="ellipse;whiteSpace=wrap;html=1;" vertex="1" parent="1">
          <mxGeometry x="465" y="80" width="60" height="50" as="geometry" />
        </mxCell>
        <mxCell id="sQAgJcYKwyNOtMR-U2Rv-32" value="Zip" style="ellipse;whiteSpace=wrap;html=1;" vertex="1" parent="1">
          <mxGeometry x="520" y="110" width="60" height="50" as="geometry" />
        </mxCell>
        <mxCell id="sQAgJcYKwyNOtMR-U2Rv-33" value="" style="endArrow=none;html=1;rounded=0;" edge="1" parent="1" source="sQAgJcYKwyNOtMR-U2Rv-10" target="sQAgJcYKwyNOtMR-U2Rv-30">
          <mxGeometry width="50" height="50" relative="1" as="geometry">
            <mxPoint x="430" y="210" as="sourcePoint" />
            <mxPoint x="480" y="160" as="targetPoint" />
          </mxGeometry>
        </mxCell>
        <mxCell id="sQAgJcYKwyNOtMR-U2Rv-34" value="" style="endArrow=none;html=1;rounded=0;" edge="1" parent="1" source="sQAgJcYKwyNOtMR-U2Rv-10" target="sQAgJcYKwyNOtMR-U2Rv-31">
          <mxGeometry width="50" height="50" relative="1" as="geometry">
            <mxPoint x="430" y="210" as="sourcePoint" />
            <mxPoint x="480" y="160" as="targetPoint" />
          </mxGeometry>
        </mxCell>
        <mxCell id="sQAgJcYKwyNOtMR-U2Rv-35" value="" style="endArrow=none;html=1;rounded=0;" edge="1" parent="1" source="sQAgJcYKwyNOtMR-U2Rv-10" target="sQAgJcYKwyNOtMR-U2Rv-32">
          <mxGeometry width="50" height="50" relative="1" as="geometry">
            <mxPoint x="430" y="210" as="sourcePoint" />
            <mxPoint x="480" y="160" as="targetPoint" />
          </mxGeometry>
        </mxCell>
        <mxCell id="sQAgJcYKwyNOtMR-U2Rv-36" value="Major Dep" style="rhombus;whiteSpace=wrap;html=1;fillColor=#dae8fc;strokeColor=#6c8ebf;" vertex="1" parent="1">
          <mxGeometry x="530" y="345" width="160" height="60" as="geometry" />
        </mxCell>
        <mxCell id="sQAgJcYKwyNOtMR-U2Rv-38" value="Minor Dep" style="rhombus;whiteSpace=wrap;html=1;fillColor=#dae8fc;strokeColor=#6c8ebf;" vertex="1" parent="1">
          <mxGeometry x="530" y="420" width="160" height="60" as="geometry" />
        </mxCell>
        <mxCell id="sQAgJcYKwyNOtMR-U2Rv-39" value="" style="endArrow=none;html=1;rounded=0;entryX=0;entryY=0.5;entryDx=0;entryDy=0;exitX=1;exitY=0.75;exitDx=0;exitDy=0;" edge="1" parent="1" source="sQAgJcYKwyNOtMR-U2Rv-1" target="sQAgJcYKwyNOtMR-U2Rv-36">
          <mxGeometry width="50" height="50" relative="1" as="geometry">
            <mxPoint x="430" y="370" as="sourcePoint" />
            <mxPoint x="480" y="320" as="targetPoint" />
          </mxGeometry>
        </mxCell>
        <mxCell id="sQAgJcYKwyNOtMR-U2Rv-41" value="" style="endArrow=none;html=1;rounded=0;" edge="1" parent="1" source="sQAgJcYKwyNOtMR-U2Rv-1" target="sQAgJcYKwyNOtMR-U2Rv-38">
          <mxGeometry width="50" height="50" relative="1" as="geometry">
            <mxPoint x="430" y="370" as="sourcePoint" />
            <mxPoint x="480" y="320" as="targetPoint" />
          </mxGeometry>
        </mxCell>
        <mxCell id="sQAgJcYKwyNOtMR-U2Rv-42" value="&lt;font style=&quot;font-size: 18px;&quot;&gt;Department&lt;/font&gt;" style="rounded=0;whiteSpace=wrap;html=1;fillColor=#f8cecc;strokeColor=#b85450;" vertex="1" parent="1">
          <mxGeometry x="840" y="135" width="120" height="60" as="geometry" />
        </mxCell>
        <mxCell id="sQAgJcYKwyNOtMR-U2Rv-43" value="Dep Name" style="ellipse;whiteSpace=wrap;html=1;" vertex="1" parent="1">
          <mxGeometry x="710" y="90" width="90" height="50" as="geometry" />
        </mxCell>
        <mxCell id="sQAgJcYKwyNOtMR-U2Rv-45" value="DepOffice" style="ellipse;whiteSpace=wrap;html=1;" vertex="1" parent="1">
          <mxGeometry x="790" y="40" width="90" height="50" as="geometry" />
        </mxCell>
        <mxCell id="sQAgJcYKwyNOtMR-U2Rv-46" value="DepCode" style="ellipse;whiteSpace=wrap;html=1;" vertex="1" parent="1">
          <mxGeometry x="900" y="40" width="90" height="50" as="geometry" />
        </mxCell>
        <mxCell id="sQAgJcYKwyNOtMR-U2Rv-47" value="DepPhone" style="ellipse;whiteSpace=wrap;html=1;" vertex="1" parent="1">
          <mxGeometry x="990" y="80" width="90" height="50" as="geometry" />
        </mxCell>
        <mxCell id="sQAgJcYKwyNOtMR-U2Rv-48" value="College" style="ellipse;whiteSpace=wrap;html=1;" vertex="1" parent="1">
          <mxGeometry x="1000" y="140" width="90" height="50" as="geometry" />
        </mxCell>
        <mxCell id="sQAgJcYKwyNOtMR-U2Rv-49" value="" style="endArrow=none;html=1;rounded=0;exitX=1;exitY=0;exitDx=0;exitDy=0;entryX=-0.022;entryY=0.603;entryDx=0;entryDy=0;entryPerimeter=0;" edge="1" parent="1" source="sQAgJcYKwyNOtMR-U2Rv-36" target="sQAgJcYKwyNOtMR-U2Rv-42">
          <mxGeometry width="50" height="50" relative="1" as="geometry">
            <mxPoint x="820" y="290" as="sourcePoint" />
            <mxPoint x="870" y="240" as="targetPoint" />
          </mxGeometry>
        </mxCell>
        <mxCell id="sQAgJcYKwyNOtMR-U2Rv-50" value="" style="endArrow=none;html=1;rounded=0;exitX=0.871;exitY=0.342;exitDx=0;exitDy=0;exitPerimeter=0;" edge="1" parent="1" source="sQAgJcYKwyNOtMR-U2Rv-38" target="sQAgJcYKwyNOtMR-U2Rv-42">
          <mxGeometry width="50" height="50" relative="1" as="geometry">
            <mxPoint x="820" y="290" as="sourcePoint" />
            <mxPoint x="870" y="240" as="targetPoint" />
          </mxGeometry>
        </mxCell>
        <mxCell id="sQAgJcYKwyNOtMR-U2Rv-51" value="" style="endArrow=none;html=1;rounded=0;entryX=1;entryY=1;entryDx=0;entryDy=0;exitX=0;exitY=0.25;exitDx=0;exitDy=0;" edge="1" parent="1" source="sQAgJcYKwyNOtMR-U2Rv-42" target="sQAgJcYKwyNOtMR-U2Rv-43">
          <mxGeometry width="50" height="50" relative="1" as="geometry">
            <mxPoint x="820" y="290" as="sourcePoint" />
            <mxPoint x="870" y="240" as="targetPoint" />
          </mxGeometry>
        </mxCell>
        <mxCell id="sQAgJcYKwyNOtMR-U2Rv-52" value="" style="endArrow=none;html=1;rounded=0;entryX=0.674;entryY=0.957;entryDx=0;entryDy=0;entryPerimeter=0;" edge="1" parent="1" source="sQAgJcYKwyNOtMR-U2Rv-42" target="sQAgJcYKwyNOtMR-U2Rv-45">
          <mxGeometry width="50" height="50" relative="1" as="geometry">
            <mxPoint x="865" y="305" as="sourcePoint" />
            <mxPoint x="880" y="105" as="targetPoint" />
          </mxGeometry>
        </mxCell>
        <mxCell id="sQAgJcYKwyNOtMR-U2Rv-53" value="" style="endArrow=none;html=1;rounded=0;entryX=0.356;entryY=0.943;entryDx=0;entryDy=0;entryPerimeter=0;" edge="1" parent="1" source="sQAgJcYKwyNOtMR-U2Rv-42" target="sQAgJcYKwyNOtMR-U2Rv-46">
          <mxGeometry width="50" height="50" relative="1" as="geometry">
            <mxPoint x="820" y="290" as="sourcePoint" />
            <mxPoint x="870" y="240" as="targetPoint" />
          </mxGeometry>
        </mxCell>
        <mxCell id="sQAgJcYKwyNOtMR-U2Rv-54" value="" style="endArrow=none;html=1;rounded=0;entryX=0.081;entryY=0.717;entryDx=0;entryDy=0;entryPerimeter=0;exitX=1;exitY=0;exitDx=0;exitDy=0;" edge="1" parent="1" source="sQAgJcYKwyNOtMR-U2Rv-42" target="sQAgJcYKwyNOtMR-U2Rv-47">
          <mxGeometry width="50" height="50" relative="1" as="geometry">
            <mxPoint x="820" y="290" as="sourcePoint" />
            <mxPoint x="870" y="240" as="targetPoint" />
          </mxGeometry>
        </mxCell>
        <mxCell id="sQAgJcYKwyNOtMR-U2Rv-55" value="" style="endArrow=none;html=1;rounded=0;entryX=0;entryY=0.5;entryDx=0;entryDy=0;" edge="1" parent="1" source="sQAgJcYKwyNOtMR-U2Rv-42" target="sQAgJcYKwyNOtMR-U2Rv-48">
          <mxGeometry width="50" height="50" relative="1" as="geometry">
            <mxPoint x="820" y="290" as="sourcePoint" />
            <mxPoint x="870" y="240" as="targetPoint" />
          </mxGeometry>
        </mxCell>
        <mxCell id="sQAgJcYKwyNOtMR-U2Rv-56" value="DepCourse" style="rhombus;whiteSpace=wrap;html=1;fillColor=#dae8fc;strokeColor=#6c8ebf;" vertex="1" parent="1">
          <mxGeometry x="835" y="280" width="130" height="50" as="geometry" />
        </mxCell>
        <mxCell id="sQAgJcYKwyNOtMR-U2Rv-57" value="" style="endArrow=none;html=1;rounded=0;entryX=0.5;entryY=1;entryDx=0;entryDy=0;" edge="1" parent="1" source="sQAgJcYKwyNOtMR-U2Rv-56" target="sQAgJcYKwyNOtMR-U2Rv-42">
          <mxGeometry width="50" height="50" relative="1" as="geometry">
            <mxPoint x="820" y="290" as="sourcePoint" />
            <mxPoint x="870" y="240" as="targetPoint" />
          </mxGeometry>
        </mxCell>
        <mxCell id="sQAgJcYKwyNOtMR-U2Rv-58" value="&lt;font style=&quot;font-size: 18px;&quot;&gt;Course&lt;/font&gt;" style="rounded=0;whiteSpace=wrap;html=1;fillColor=#f8cecc;strokeColor=#b85450;" vertex="1" parent="1">
          <mxGeometry x="840" y="415" width="120" height="40" as="geometry" />
        </mxCell>
        <mxCell id="sQAgJcYKwyNOtMR-U2Rv-59" value="" style="endArrow=none;html=1;rounded=0;exitX=0.5;exitY=0;exitDx=0;exitDy=0;" edge="1" parent="1" source="sQAgJcYKwyNOtMR-U2Rv-58" target="sQAgJcYKwyNOtMR-U2Rv-56">
          <mxGeometry width="50" height="50" relative="1" as="geometry">
            <mxPoint x="820" y="370" as="sourcePoint" />
            <mxPoint x="870" y="320" as="targetPoint" />
          </mxGeometry>
        </mxCell>
        <mxCell id="sQAgJcYKwyNOtMR-U2Rv-60" value="CName" style="ellipse;whiteSpace=wrap;html=1;" vertex="1" parent="1">
          <mxGeometry x="770" y="480" width="70" height="45" as="geometry" />
        </mxCell>
        <mxCell id="sQAgJcYKwyNOtMR-U2Rv-63" value="CDescription" style="ellipse;whiteSpace=wrap;html=1;" vertex="1" parent="1">
          <mxGeometry x="730" y="420" width="80" height="45" as="geometry" />
        </mxCell>
        <mxCell id="sQAgJcYKwyNOtMR-U2Rv-64" value="NumSemHours" style="ellipse;whiteSpace=wrap;html=1;" vertex="1" parent="1">
          <mxGeometry x="1000" y="415" width="110" height="45" as="geometry" />
        </mxCell>
        <mxCell id="sQAgJcYKwyNOtMR-U2Rv-65" value="Level" style="ellipse;whiteSpace=wrap;html=1;" vertex="1" parent="1">
          <mxGeometry x="950" y="480" width="70" height="45" as="geometry" />
        </mxCell>
        <mxCell id="sQAgJcYKwyNOtMR-U2Rv-66" value="CNum" style="ellipse;whiteSpace=wrap;html=1;" vertex="1" parent="1">
          <mxGeometry x="965" y="355" width="70" height="45" as="geometry" />
        </mxCell>
        <mxCell id="sQAgJcYKwyNOtMR-U2Rv-68" value="" style="endArrow=none;html=1;rounded=0;" edge="1" parent="1" source="sQAgJcYKwyNOtMR-U2Rv-58" target="sQAgJcYKwyNOtMR-U2Rv-63">
          <mxGeometry width="50" height="50" relative="1" as="geometry">
            <mxPoint x="820" y="370" as="sourcePoint" />
            <mxPoint x="870" y="320" as="targetPoint" />
          </mxGeometry>
        </mxCell>
        <mxCell id="sQAgJcYKwyNOtMR-U2Rv-69" value="" style="endArrow=none;html=1;rounded=0;entryX=0.178;entryY=0.988;entryDx=0;entryDy=0;entryPerimeter=0;" edge="1" parent="1" source="sQAgJcYKwyNOtMR-U2Rv-60" target="sQAgJcYKwyNOtMR-U2Rv-58">
          <mxGeometry width="50" height="50" relative="1" as="geometry">
            <mxPoint x="820" y="370" as="sourcePoint" />
            <mxPoint x="870" y="320" as="targetPoint" />
          </mxGeometry>
        </mxCell>
        <mxCell id="sQAgJcYKwyNOtMR-U2Rv-70" value="" style="endArrow=none;html=1;rounded=0;exitX=0.75;exitY=0;exitDx=0;exitDy=0;" edge="1" parent="1" source="sQAgJcYKwyNOtMR-U2Rv-58" target="sQAgJcYKwyNOtMR-U2Rv-66">
          <mxGeometry width="50" height="50" relative="1" as="geometry">
            <mxPoint x="820" y="370" as="sourcePoint" />
            <mxPoint x="870" y="320" as="targetPoint" />
          </mxGeometry>
        </mxCell>
        <mxCell id="sQAgJcYKwyNOtMR-U2Rv-71" value="" style="endArrow=none;html=1;rounded=0;entryX=0;entryY=0.5;entryDx=0;entryDy=0;" edge="1" parent="1" source="sQAgJcYKwyNOtMR-U2Rv-58" target="sQAgJcYKwyNOtMR-U2Rv-64">
          <mxGeometry width="50" height="50" relative="1" as="geometry">
            <mxPoint x="820" y="370" as="sourcePoint" />
            <mxPoint x="870" y="320" as="targetPoint" />
          </mxGeometry>
        </mxCell>
        <mxCell id="sQAgJcYKwyNOtMR-U2Rv-72" value="" style="endArrow=none;html=1;rounded=0;exitX=0.7;exitY=0.988;exitDx=0;exitDy=0;exitPerimeter=0;" edge="1" parent="1" source="sQAgJcYKwyNOtMR-U2Rv-58" target="sQAgJcYKwyNOtMR-U2Rv-65">
          <mxGeometry width="50" height="50" relative="1" as="geometry">
            <mxPoint x="820" y="370" as="sourcePoint" />
            <mxPoint x="870" y="320" as="targetPoint" />
          </mxGeometry>
        </mxCell>
        <mxCell id="sQAgJcYKwyNOtMR-U2Rv-73" value="CourseSection" style="rhombus;whiteSpace=wrap;html=1;fillColor=#dae8fc;strokeColor=#6c8ebf;" vertex="1" parent="1">
          <mxGeometry x="835" y="560" width="130" height="50" as="geometry" />
        </mxCell>
        <mxCell id="sQAgJcYKwyNOtMR-U2Rv-74" value="" style="endArrow=none;html=1;rounded=0;entryX=0.5;entryY=1;entryDx=0;entryDy=0;exitX=0.5;exitY=0;exitDx=0;exitDy=0;" edge="1" parent="1" source="sQAgJcYKwyNOtMR-U2Rv-73" target="sQAgJcYKwyNOtMR-U2Rv-58">
          <mxGeometry width="50" height="50" relative="1" as="geometry">
            <mxPoint x="820" y="530" as="sourcePoint" />
            <mxPoint x="870" y="480" as="targetPoint" />
          </mxGeometry>
        </mxCell>
        <mxCell id="sQAgJcYKwyNOtMR-U2Rv-75" value="&lt;font style=&quot;font-size: 18px;&quot;&gt;Section&lt;/font&gt;" style="rounded=0;whiteSpace=wrap;html=1;fillColor=#f8cecc;strokeColor=#b85450;" vertex="1" parent="1">
          <mxGeometry x="840" y="698.75" width="120" height="50" as="geometry" />
        </mxCell>
        <mxCell id="sQAgJcYKwyNOtMR-U2Rv-76" value="Year" style="ellipse;whiteSpace=wrap;html=1;" vertex="1" parent="1">
          <mxGeometry x="1130" y="720" width="70" height="45" as="geometry" />
        </mxCell>
        <mxCell id="sQAgJcYKwyNOtMR-U2Rv-77" value="Semester" style="ellipse;whiteSpace=wrap;html=1;" vertex="1" parent="1">
          <mxGeometry x="1120" y="655" width="80" height="45" as="geometry" />
        </mxCell>
        <mxCell id="sQAgJcYKwyNOtMR-U2Rv-78" value="Partial Key" style="ellipse;whiteSpace=wrap;html=1;" vertex="1" parent="1">
          <mxGeometry x="990" y="720" width="100" height="45" as="geometry" />
        </mxCell>
        <mxCell id="sQAgJcYKwyNOtMR-U2Rv-79" value="Instruction" style="ellipse;whiteSpace=wrap;html=1;" vertex="1" parent="1">
          <mxGeometry x="990" y="650" width="100" height="45" as="geometry" />
        </mxCell>
        <mxCell id="sQAgJcYKwyNOtMR-U2Rv-80" value="SecNum" style="ellipse;whiteSpace=wrap;html=1;" vertex="1" parent="1">
          <mxGeometry x="1080" y="780" width="80" height="45" as="geometry" />
        </mxCell>
        <mxCell id="sQAgJcYKwyNOtMR-U2Rv-83" value="" style="endArrow=none;html=1;rounded=0;entryX=0;entryY=0.5;entryDx=0;entryDy=0;exitX=0.708;exitY=-0.017;exitDx=0;exitDy=0;exitPerimeter=0;" edge="1" parent="1" source="sQAgJcYKwyNOtMR-U2Rv-75" target="sQAgJcYKwyNOtMR-U2Rv-79">
          <mxGeometry width="50" height="50" relative="1" as="geometry">
            <mxPoint x="820" y="610" as="sourcePoint" />
            <mxPoint x="870" y="560" as="targetPoint" />
          </mxGeometry>
        </mxCell>
        <mxCell id="sQAgJcYKwyNOtMR-U2Rv-84" value="" style="endArrow=none;html=1;rounded=0;exitX=1;exitY=0.5;exitDx=0;exitDy=0;" edge="1" parent="1" source="sQAgJcYKwyNOtMR-U2Rv-75" target="sQAgJcYKwyNOtMR-U2Rv-78">
          <mxGeometry width="50" height="50" relative="1" as="geometry">
            <mxPoint x="820" y="610" as="sourcePoint" />
            <mxPoint x="870" y="560" as="targetPoint" />
          </mxGeometry>
        </mxCell>
        <mxCell id="sQAgJcYKwyNOtMR-U2Rv-85" value="" style="endArrow=none;html=1;rounded=0;" edge="1" parent="1" source="sQAgJcYKwyNOtMR-U2Rv-78" target="sQAgJcYKwyNOtMR-U2Rv-77">
          <mxGeometry width="50" height="50" relative="1" as="geometry">
            <mxPoint x="820" y="840" as="sourcePoint" />
            <mxPoint x="870" y="790" as="targetPoint" />
          </mxGeometry>
        </mxCell>
        <mxCell id="sQAgJcYKwyNOtMR-U2Rv-86" value="" style="endArrow=none;html=1;rounded=0;" edge="1" parent="1" source="sQAgJcYKwyNOtMR-U2Rv-78" target="sQAgJcYKwyNOtMR-U2Rv-76">
          <mxGeometry width="50" height="50" relative="1" as="geometry">
            <mxPoint x="820" y="840" as="sourcePoint" />
            <mxPoint x="870" y="790" as="targetPoint" />
          </mxGeometry>
        </mxCell>
        <mxCell id="sQAgJcYKwyNOtMR-U2Rv-87" value="" style="endArrow=none;html=1;rounded=0;" edge="1" parent="1" source="sQAgJcYKwyNOtMR-U2Rv-78" target="sQAgJcYKwyNOtMR-U2Rv-80">
          <mxGeometry width="50" height="50" relative="1" as="geometry">
            <mxPoint x="820" y="840" as="sourcePoint" />
            <mxPoint x="870" y="790" as="targetPoint" />
          </mxGeometry>
        </mxCell>
        <mxCell id="sQAgJcYKwyNOtMR-U2Rv-88" value="StudentSection" style="rhombus;whiteSpace=wrap;html=1;fillColor=#dae8fc;strokeColor=#6c8ebf;" vertex="1" parent="1">
          <mxGeometry x="540" y="695" width="162.5" height="60" as="geometry" />
        </mxCell>
        <mxCell id="sQAgJcYKwyNOtMR-U2Rv-90" value="" style="endArrow=none;html=1;rounded=0;entryX=0.833;entryY=0.975;entryDx=0;entryDy=0;entryPerimeter=0;" edge="1" parent="1" source="sQAgJcYKwyNOtMR-U2Rv-88" target="sQAgJcYKwyNOtMR-U2Rv-1">
          <mxGeometry width="50" height="50" relative="1" as="geometry">
            <mxPoint x="820" y="680" as="sourcePoint" />
            <mxPoint x="421" y="370" as="targetPoint" />
          </mxGeometry>
        </mxCell>
        <mxCell id="sQAgJcYKwyNOtMR-U2Rv-91" value="" style="endArrow=none;html=1;rounded=0;exitX=1;exitY=0.5;exitDx=0;exitDy=0;" edge="1" parent="1" source="sQAgJcYKwyNOtMR-U2Rv-88" target="sQAgJcYKwyNOtMR-U2Rv-75">
          <mxGeometry width="50" height="50" relative="1" as="geometry">
            <mxPoint x="820" y="610" as="sourcePoint" />
            <mxPoint x="870" y="560" as="targetPoint" />
          </mxGeometry>
        </mxCell>
        <mxCell id="sQAgJcYKwyNOtMR-U2Rv-92" value="&lt;font style=&quot;font-size: 17px;&quot;&gt;Grade&lt;/font&gt;" style="rounded=0;whiteSpace=wrap;html=1;fillColor=#f8cecc;strokeColor=#b85450;" vertex="1" parent="1">
          <mxGeometry x="300" y="700" width="120" height="47.5" as="geometry" />
        </mxCell>
        <mxCell id="sQAgJcYKwyNOtMR-U2Rv-93" value="NumGrade" style="ellipse;whiteSpace=wrap;html=1;" vertex="1" parent="1">
          <mxGeometry x="170" y="630" width="110" height="50" as="geometry" />
        </mxCell>
        <mxCell id="sQAgJcYKwyNOtMR-U2Rv-94" value="LetterGrade" style="ellipse;whiteSpace=wrap;html=1;" vertex="1" parent="1">
          <mxGeometry x="130" y="740" width="110" height="50" as="geometry" />
        </mxCell>
        <mxCell id="sQAgJcYKwyNOtMR-U2Rv-95" value="" style="endArrow=none;html=1;rounded=0;entryX=0;entryY=0.5;entryDx=0;entryDy=0;" edge="1" parent="1" source="sQAgJcYKwyNOtMR-U2Rv-92" target="sQAgJcYKwyNOtMR-U2Rv-88">
          <mxGeometry width="50" height="50" relative="1" as="geometry">
            <mxPoint x="470" y="610" as="sourcePoint" />
            <mxPoint x="520" y="560" as="targetPoint" />
          </mxGeometry>
        </mxCell>
        <mxCell id="sQAgJcYKwyNOtMR-U2Rv-98" value="" style="endArrow=none;html=1;rounded=0;exitX=0;exitY=0;exitDx=0;exitDy=0;" edge="1" parent="1" source="sQAgJcYKwyNOtMR-U2Rv-92" target="sQAgJcYKwyNOtMR-U2Rv-93">
          <mxGeometry width="50" height="50" relative="1" as="geometry">
            <mxPoint x="470" y="610" as="sourcePoint" />
            <mxPoint x="520" y="560" as="targetPoint" />
          </mxGeometry>
        </mxCell>
        <mxCell id="sQAgJcYKwyNOtMR-U2Rv-99" value="" style="endArrow=none;html=1;rounded=0;" edge="1" parent="1" source="sQAgJcYKwyNOtMR-U2Rv-92" target="sQAgJcYKwyNOtMR-U2Rv-94">
          <mxGeometry width="50" height="50" relative="1" as="geometry">
            <mxPoint x="470" y="610" as="sourcePoint" />
            <mxPoint x="520" y="560" as="targetPoint" />
          </mxGeometry>
        </mxCell>
        <mxCell id="sQAgJcYKwyNOtMR-U2Rv-100" value="" style="endArrow=none;html=1;rounded=0;entryX=0.5;entryY=1;entryDx=0;entryDy=0;" edge="1" parent="1" source="sQAgJcYKwyNOtMR-U2Rv-75" target="sQAgJcYKwyNOtMR-U2Rv-73">
          <mxGeometry width="50" height="50" relative="1" as="geometry">
            <mxPoint x="600" y="630" as="sourcePoint" />
            <mxPoint x="650" y="580" as="targetPoint" />
          </mxGeometry>
        </mxCell>
      </root>
    </mxGraphModel>
  </diagram>
</mxfile>
